<?xml version="1.0" standalone="no"?>
<!DOCTYPE svg PUBLIC "-//W3C//DTD SVG 20010904//EN"
 "http://www.w3.org/TR/2001/REC-SVG-20010904/DTD/svg10.dtd">
<svg version="1.0" xmlns="http://www.w3.org/2000/svg"
 width="824.000000pt" height="824.000000pt" viewBox="0 0 824.000000 824.000000"
 preserveAspectRatio="xMidYMid meet">
<metadata>
Created by potrace 1.14, written by Peter Selinger 2001-2017
</metadata>
<g transform="translate(0.000000,824.000000) scale(0.100000,-0.100000)"
fill="#000000" stroke="none">
<path d="M2588 6254 c-722 -361 -1315 -658 -1317 -660 -4 -4 -3 -802 2 -1197
1 -86 1 -157 0 -157 -1 0 -112 53 -245 118 -372 182 -630 304 -783 372 -27 12
-58 26 -67 31 -33 17 -46 10 -50 -28 -4 -31 -3 -1324 1 -1416 1 -19 8 -30 23
-36 13 -5 70 -31 128 -59 138 -65 267 -126 360 -169 76 -36 193 -92 388 -184
126 -61 275 -131 352 -166 30 -14 107 -50 170 -80 63 -31 153 -73 199 -95 83
-39 149 -70 346 -163 55 -26 136 -64 180 -85 44 -21 130 -61 190 -90 61 -29
146 -69 190 -90 94 -44 241 -114 375 -177 52 -25 131 -62 175 -83 82 -38 231
-109 390 -185 128 -61 298 -142 380 -180 39 -18 120 -56 180 -85 61 -28 124
-58 141 -66 31 -15 35 -14 120 30 48 25 93 46 100 46 7 0 14 3 16 8 4 10 128
72 144 72 7 0 14 3 16 8 3 6 1115 566 1128 567 3 0 14 6 25 13 46 28 903 452
913 452 7 0 12 3 12 8 0 6 68 40 88 43 4 1 18 9 32 18 14 9 37 22 53 29 15 6
27 17 28 24 1 15 1 217 -1 853 -1 253 -1 468 -1 477 1 14 26 5 134 -50 72 -37
137 -69 142 -72 6 -2 88 -41 184 -87 332 -161 366 -176 376 -179 6 -1 53 -22
105 -47 178 -83 185 -86 195 -76 9 9 16 1403 7 1454 -2 14 -24 30 -65 49 -34
16 -109 51 -167 79 -58 27 -143 67 -190 89 -47 22 -130 62 -185 88 -135 65
-293 140 -390 185 -162 76 -242 114 -345 162 -58 28 -150 72 -205 98 -55 26
-136 64 -180 85 -44 21 -123 59 -175 83 -52 25 -144 68 -205 97 -201 95 -278
132 -455 215 -492 232 -551 259 -790 373 -52 25 -97 46 -100 46 -3 1 -36 17
-75 35 -68 33 -171 81 -305 143 -36 17 -101 48 -145 68 -146 69 -215 100 -224
100 -5 0 -600 -295 -1323 -656z m1721 -971 c428 -208 521 -253 524 -250 1 1
16 -8 34 -21 17 -12 35 -22 39 -22 4 0 73 -32 153 -71 81 -40 216 -105 301
-146 85 -40 162 -78 170 -83 8 -5 29 -16 45 -24 17 -7 89 -42 160 -77 72 -35
133 -62 138 -61 4 1 7 -2 7 -8 0 -5 4 -10 9 -10 5 0 111 -49 236 -110 124 -60
229 -110 234 -110 5 0 14 -7 21 -15 6 -8 15 -14 18 -13 4 1 52 -20 107 -46 55
-27 102 -48 104 -46 2 1 7 -2 10 -7 3 -4 44 -26 91 -49 182 -88 220 -107 220
-114 0 -8 -81 -46 -92 -42 -5 1 -8 -1 -8 -6 0 -4 -15 -13 -32 -21 -18 -8 -84
-38 -146 -67 -63 -30 -116 -54 -118 -54 -2 0 -41 -18 -87 -41 -45 -22 -83 -40
-84 -40 -2 0 -42 -18 -90 -40 -49 -23 -117 -54 -153 -71 -36 -16 -101 -47
-145 -68 -44 -21 -106 -49 -137 -64 -32 -14 -93 -42 -135 -62 -43 -20 -96 -44
-118 -54 -62 -28 -194 -89 -260 -120 -33 -15 -91 -42 -130 -60 -110 -50 -120
-54 -127 -65 -4 -5 -8 -7 -8 -3 0 4 -46 -15 -102 -41 -57 -27 -128 -60 -158
-73 -30 -14 -118 -55 -195 -90 -77 -36 -162 -75 -190 -87 -27 -12 -63 -29 -78
-37 -16 -8 -33 -14 -38 -14 -17 0 -291 129 -638 299 -68 34 -130 61 -137 61
-8 0 -14 5 -14 10 0 6 -7 10 -15 10 -8 0 -38 14 -67 31 -29 17 -54 31 -56 30
-4 -2 -84 36 -337 159 -126 61 -293 142 -370 180 -77 37 -230 112 -340 165
-110 54 -276 135 -370 180 -93 46 -273 133 -398 194 -126 61 -232 111 -237
111 -5 0 -12 5 -15 10 -5 8 89 61 115 65 3 1 39 17 80 37 41 20 100 47 130 61
94 42 182 83 265 123 44 21 82 39 85 39 3 1 32 14 65 30 168 78 402 185 435
199 8 3 22 10 30 15 15 9 72 35 185 86 33 15 102 47 152 71 51 24 95 44 98 44
2 0 46 20 97 44 51 24 116 54 143 66 28 13 79 37 115 53 36 17 67 31 70 32 3
0 41 18 84 38 43 20 80 37 82 37 1 0 35 15 76 34 111 51 285 126 326 140 35
13 41 11 106 -21 39 -20 158 -78 265 -130z"/>
</g>
</svg>
